<svg width="206" height="194" viewBox="0 0 206 194" fill="none" xmlns="http://www.w3.org/2000/svg">
<path fill-rule="evenodd" clip-rule="evenodd" d="M24.5959 166.869C13.0002 153.589 38.0988 112.7 80.655 75.5403C123.211 38.3807 167.11 19.0221 178.706 32.3018C190.301 45.5814 165.203 86.4706 122.647 123.63C80.0903 160.79 36.1915 180.148 24.5959 166.869ZM37.0542 155.99C27.8313 145.427 49.2753 111.612 84.9506 80.4603C120.626 49.309 157.023 32.6184 166.246 43.1807C175.469 53.7431 154.025 87.5587 118.35 118.71C82.6745 149.861 46.2772 166.552 37.0542 155.99Z" fill="white"/>
<path fill-rule="evenodd" clip-rule="evenodd" d="M177.228 167.225C191.253 151.163 171.556 105.453 128.782 68.1029C86.0071 30.7527 36.5448 16.3127 22.5197 32.3747C8.49461 48.4367 35.2177 88.9182 77.9922 126.268C120.767 163.618 163.203 183.286 177.228 167.225ZM164.782 157.924C174.542 146.746 153.385 112.303 117.527 80.992C81.6684 49.681 44.6877 33.3592 34.928 44.5363C25.1682 55.7135 46.3253 90.1569 82.1836 121.468C118.042 152.779 155.023 169.101 164.782 157.924Z" fill="white"/>
<path fill-rule="evenodd" clip-rule="evenodd" d="M175.355 169.353C187.06 155.948 162.051 114.957 119.494 77.7975C76.9381 40.6379 32.9504 21.3812 21.2451 34.7865C9.53976 48.1918 34.5494 89.1827 77.1057 126.342C119.662 163.502 163.65 182.759 175.355 169.353ZM162.896 158.474C172.206 147.812 150.833 113.915 115.158 82.764C79.4822 51.6127 43.0142 35.003 33.704 45.6653C24.3938 56.3276 45.767 90.2242 81.4424 121.376C117.118 152.527 153.586 169.136 162.896 158.474Z" fill="url(#paint0_linear_8_167)"/>
<path d="M52.9265 102.949L57.9713 97.3907L62.5886 102.264L57.7148 107.822L52.9265 102.949Z" fill="white"/>
<path d="M92.2596 138.946L98.5015 134.585L104.316 138.519L97.903 143.221L92.2596 138.946Z" fill="white"/>
<defs>
<linearGradient id="paint0_linear_8_167" x1="119.494" y1="77.7975" x2="77.1057" y2="126.342" gradientUnits="userSpaceOnUse">
<stop stop-color="#4A4848"/>
<stop offset="1" stop-color="#B0ABAB"/>
</linearGradient>
</defs>
</svg>
